<svg width="530" height="645" viewBox="0 0 530 645" fill="none" xmlns="http://www.w3.org/2000/svg">
  <path
    d="M220.19 587.8C252.049 601.093 287.703 602.112 320.27 590.66C465.69 540.22 500.1 415.39 419.51 351.27C332.6 282.11 310.46 234 310.46 234C240.76 109.07 146.91 153.72 146.91 153.72C146.91 153.72 54.6098 206.26 117.26 334.86C117.26 334.86 144.1 380.54 151.16 491.39C154.68 546.79 187.88 574.22 220.19 587.8Z"
    fill="#87B540" />
  <path
    d="M236.21 558.67C263.58 571.48 293.04 572.72 319.21 564C438.3 524.34 463.21 416.91 394.65 358.93C320.66 296.39 301 254 301 254C239.67 143.53 163.16 179.63 163.16 179.63C163.16 179.63 88.1599 222.63 143.75 336.1C143.75 336.1 167.29 376.53 176.29 473C180.75 521.19 209 546 236.21 558.67Z"
    fill="#CAD872" />
  <path
    d="M220.19 587.8L216.87 595.71C234.849 603.267 254.158 607.154 273.66 607.14C290.486 607.124 307.19 604.292 323.08 598.76C371.37 582.02 408.08 557.14 432.95 528.48C457.82 499.82 470.62 467.34 470.62 435.8C470.657 418.634 466.721 401.692 459.12 386.3C451.46 370.77 439.97 356.58 424.86 344.56C381.86 310.36 355.09 281.5 339.12 261.36C333.155 253.937 327.636 246.166 322.59 238.09C320.97 235.44 319.85 233.44 319.15 232.14C318.81 231.49 318.56 231.02 318.42 230.72L318.27 230.42V230.37L315.27 231.8L318.33 230.4L315.33 231.83L318.39 230.43L318.25 230.12L318.09 229.83C297.19 192.36 273.77 169.08 250.8 155.31C231.709 143.646 209.782 137.447 187.41 137.39C161.49 137.39 144.09 145.65 143.41 145.98L143.12 146.12L142.85 146.27C142.24 146.64 128.53 154.48 114.7 171.51C106.72 181.348 100.311 192.362 95.7002 204.16C89.8907 219.22 86.9632 235.238 87.0702 251.38C87.0702 276.05 93.3902 305.09 109.74 338.63L109.89 338.93L110.05 339.22L112.94 337.52L110.04 339.2L112.93 337.5L110.03 339.18C110.17 339.43 135.89 384.01 142.77 491.92C144.6 521.24 154.52 543.92 168.44 560.75C182.36 577.58 199.98 588.55 217.05 595.75L220.37 587.84L223.7 579.93C208.46 573.53 193.33 563.98 181.7 549.85C170.07 535.72 161.61 516.96 159.92 490.85C152.79 378.78 125.56 331.69 124.86 330.52L117.46 334.87L125.18 331.11C109.77 299.48 104.24 273.11 104.24 251.38C104.131 237.367 106.658 223.459 111.69 210.38C117.261 196.179 125.825 183.345 136.8 172.75C140.112 169.524 143.651 166.54 147.39 163.82C148.72 162.82 149.77 162.16 150.46 161.72C150.8 161.5 151.05 161.35 151.21 161.26L151.36 161.16L149.11 157.27L151.34 161.18L149.09 157.29L151.32 161.2L147.07 153.74L150.76 161.49L149.56 158.97L150.74 161.5L149.54 158.98L150.72 161.51C150.96 161.38 165.91 154.51 187.42 154.57C202.99 154.57 221.93 158.03 241.98 170.05C262.03 182.07 283.36 202.83 303.11 238.21L310.6 234.03L302.81 237.62C303.37 238.85 326.43 288.12 414.31 358.03C427.6 368.62 437.38 380.8 443.88 393.95C450.318 406.977 453.645 421.319 453.6 435.85C453.6 462.67 442.66 491.26 420.12 517.3C397.58 543.34 363.47 566.69 317.6 582.6C303.517 587.502 288.712 590.013 273.8 590.03C256.581 590.044 239.533 586.613 223.66 579.94L220.19 587.8Z"
    fill="#49321D" />
  <path
    d="M343.563 483.461C371.673 455.351 371.673 409.776 343.563 381.666C315.453 353.556 269.878 353.556 241.768 381.666C213.658 409.776 213.658 455.351 241.768 483.461C269.878 511.571 315.453 511.571 343.563 483.461Z"
    fill="#F3E39D" />
  <path
    d="M364.64 432.56H356.06C356.06 447.228 350.975 461.442 341.67 472.781C332.365 484.119 319.416 491.881 305.03 494.743C290.644 497.605 275.711 495.39 262.774 488.475C249.838 481.561 239.7 470.375 234.087 456.824C228.473 443.273 227.732 428.194 231.99 414.158C236.247 400.122 245.24 387.996 257.436 379.846C269.632 371.697 284.276 368.029 298.874 369.466C313.471 370.904 327.118 377.358 337.49 387.73C343.389 393.609 348.067 400.596 351.254 408.29C354.441 415.984 356.074 424.232 356.06 432.56H373.22C373.209 413.929 366.738 395.878 354.911 381.482C343.084 367.086 326.632 357.236 308.357 353.61C290.082 349.983 271.115 352.805 254.687 361.594C238.259 370.383 225.386 384.595 218.262 401.81C211.137 419.026 210.201 438.178 215.613 456.006C221.026 473.834 232.452 489.234 247.944 499.582C263.437 509.931 282.039 514.588 300.58 512.761C319.121 510.933 336.456 502.734 349.63 489.56C357.125 482.083 363.067 473.197 367.116 463.415C371.164 453.633 373.239 443.147 373.22 432.56H364.64Z"
    fill="#E2C23B" />
  <path
    d="M313.46 529.64C295.188 534.553 275.909 534.274 257.786 528.835C239.664 523.396 223.417 513.012 210.87 498.85C210.124 498.005 209.218 497.315 208.205 496.82C207.192 496.325 206.091 496.035 204.965 495.965C203.84 495.895 202.712 496.048 201.645 496.414C200.579 496.781 199.595 497.353 198.75 498.1C197.905 498.847 197.215 499.752 196.72 500.765C196.225 501.779 195.935 502.879 195.865 504.005C195.795 505.13 195.948 506.258 196.314 507.325C196.681 508.391 197.254 509.375 198 510.22C212.663 526.776 231.653 538.916 252.835 545.276C274.017 551.635 296.552 551.962 317.91 546.22C318.998 545.927 320.018 545.422 320.911 544.734C321.803 544.047 322.552 543.19 323.114 542.213C323.676 541.236 324.04 540.158 324.185 539.041C324.33 537.923 324.254 536.788 323.96 535.7C323.667 534.612 323.162 533.592 322.474 532.7C321.787 531.807 320.93 531.058 319.953 530.496C318.976 529.934 317.898 529.571 316.781 529.425C315.663 529.28 314.528 529.357 313.44 529.65L313.46 529.64Z"
    fill="#49321D" />
  <path
    d="M325.5 337.65C336.369 342.124 346.38 348.447 355.09 356.34C356.777 357.868 359.001 358.663 361.274 358.55C363.547 358.438 365.682 357.427 367.21 355.74C368.737 354.053 369.532 351.829 369.42 349.556C369.307 347.283 368.297 345.148 366.61 343.62C356.426 334.39 344.715 327 332 321.78C329.895 320.914 327.533 320.92 325.433 321.795C323.332 322.671 321.666 324.346 320.8 326.45C319.934 328.554 319.939 330.917 320.815 333.017C321.691 335.118 323.365 336.784 325.47 337.65H325.5Z"
    fill="#49321D" />
  <path
    d="M159.897 71.1337C145.067 57.3806 132.232 43.5084 121.962 30.1329C119.973 27.543 116.892 24.7941 113.398 22.491C109.905 20.1879 106.284 18.5193 103.332 17.8521C100.381 17.185 98.3403 17.5741 97.6599 18.9337C96.9795 20.2933 97.7149 22.5121 99.7043 25.102C111.713 40.7429 126.729 56.966 144.083 73.0472C146.954 75.71 150.544 78.1645 154.061 79.8708C157.579 81.5772 160.737 82.3956 162.84 82.146C164.943 81.8964 165.819 80.5992 165.276 78.5398C164.732 76.4805 162.814 73.8277 159.942 71.1649L159.897 71.1337Z"
    fill="#447C3B" />
  <path
    d="M151.069 154.063C150.625 128.191 160.063 103.123 177.458 83.9661C178.988 82.2788 179.785 80.0529 179.674 77.778C179.563 75.5031 178.552 73.3655 176.865 71.8355C175.178 70.3056 172.952 69.5086 170.677 69.6198C168.402 69.731 166.264 70.7414 164.734 72.4287C160.902 76.6593 157.376 81.1577 154.183 85.8898C140.522 106.079 133.442 130 133.913 154.373C133.86 155.545 134.048 156.716 134.466 157.813C134.884 158.91 135.523 159.909 136.342 160.749C137.162 161.589 138.145 162.253 139.232 162.697C140.318 163.142 141.484 163.36 142.657 163.336C143.831 163.312 144.987 163.048 146.054 162.56C147.122 162.071 148.077 161.369 148.862 160.497C149.647 159.624 150.245 158.6 150.618 157.487C150.992 156.374 151.133 155.197 151.033 154.027L151.069 154.063Z"
    fill="#49321D" />
</svg>