<svg width="530" height="645" viewBox="0 0 530 645" fill="none" xmlns="http://www.w3.org/2000/svg">
  <path
    d="M249.004 612.61C98.4241 681.88 -15.6258 528.31 29.5442 433.99C78.1842 332.46 75.3242 279.55 75.3242 279.55C79.6142 136.55 169.704 145.13 169.704 145.13C169.704 145.13 200.204 140.06 225.134 177.87"
    fill="#4F893F" />
  <path
    d="M287.134 611.18C136.554 680.46 22.504 526.87 67.674 432.55C116.294 331.02 113.434 278.11 113.434 278.11C117.724 135.11 207.814 143.69 207.814 143.69C207.814 143.69 238.304 138.62 263.244 176.43"
    fill="#447C3B" />
  <path
    d="M245.434 604.82C220.144 616.46 196.214 621.46 174.084 621.46C153.816 621.501 133.777 617.173 115.334 608.77C89.4261 596.794 67.4031 577.782 51.7737 553.9C36.5737 530.84 28.1337 504.51 28.1537 479.69C28.0147 465.181 31.1419 450.826 37.3037 437.69C81.3037 345.82 83.9437 292.55 83.9437 281.3C83.9437 279.98 83.9437 279.24 83.8937 279.09L75.3237 279.55L83.9037 279.8C84.8337 248.68 89.9037 225.34 97.0137 207.89C102.334 194.8 108.764 185.01 115.504 177.58C123.736 168.336 134.199 161.355 145.894 157.3C152.626 154.949 159.694 153.703 166.824 153.61C167.594 153.61 168.174 153.61 168.524 153.61H168.884L169.994 153.72L171.104 153.53L170.284 148.53L171.014 153.53H171.104L170.284 148.53L171.014 153.53C171.814 153.441 172.619 153.401 173.424 153.41C179.704 153.527 185.878 155.048 191.494 157.86C199.494 161.72 208.864 168.79 217.944 182.52C219.197 184.42 221.154 185.745 223.383 186.202C225.613 186.66 227.933 186.213 229.834 184.96C231.734 183.707 233.059 181.75 233.516 179.52C233.974 177.29 233.527 174.97 232.274 173.07C221.714 157.05 209.724 147.64 199.004 142.46C191.062 138.521 182.338 136.416 173.474 136.3C171.751 136.282 170.029 136.396 168.324 136.64L169.724 145.11L170.544 136.57C170.304 136.57 168.994 136.43 166.844 136.43C159.161 136.498 151.527 137.646 144.164 139.84C135.446 142.391 127.177 146.28 119.654 151.37C106.834 160.01 93.9737 173.64 84.2637 194.28C74.5537 214.92 67.8737 242.46 66.7737 279.28V279.64V280H67.1637H66.7737H67.1637H66.7737C66.7737 280.11 66.7737 280.54 66.7737 281.3C66.7737 289.9 64.7737 340.47 21.8237 430.3C14.5636 445.738 10.8659 462.61 11.0037 479.67C11.0537 517.92 28.0037 557.34 56.7137 587.52C71.3769 602.984 88.8694 615.493 108.244 624.37C128.918 633.786 151.377 638.639 174.094 638.6C198.814 638.6 225.284 632.99 252.614 620.41C254.669 619.451 256.261 617.718 257.042 615.589C257.823 613.461 257.729 611.109 256.782 609.049C255.834 606.989 254.11 605.388 251.985 604.595C249.861 603.803 247.509 603.883 245.444 604.82H245.434Z"
    fill="#49321D" />
  <path
    d="M268.194 619.26C300.053 632.553 335.707 633.572 368.274 622.12C513.694 571.68 548.104 446.85 467.514 382.73C380.604 313.57 358.464 265.46 358.464 265.46C288.764 140.53 194.914 185.18 194.914 185.18C194.914 185.18 102.614 237.72 165.264 366.32C165.264 366.32 192.104 412 199.164 522.85C202.684 578.25 235.884 605.68 268.194 619.26Z"
    fill="#87B540" />
  <path
    d="M284.214 590.13C311.584 602.94 341.044 604.18 367.214 595.46C486.304 555.8 511.214 448.37 442.654 390.39C368.664 327.85 349.004 285.46 349.004 285.46C287.674 174.99 211.164 211.09 211.164 211.09C211.164 211.09 136.164 254.09 191.754 367.56C191.754 367.56 215.294 407.99 224.294 504.46C228.754 552.65 257.004 577.46 284.214 590.13Z"
    fill="#CAD872" />
  <path
    d="M268.194 619.26L264.874 627.17C282.853 634.727 302.161 638.613 321.664 638.6C338.49 638.584 355.194 635.752 371.084 630.22C419.374 613.48 456.084 588.6 480.954 559.94C505.824 531.28 518.624 498.8 518.624 467.26C518.66 450.094 514.724 433.152 507.124 417.76C499.464 402.23 487.974 388.04 472.864 376.02C429.864 341.82 403.094 312.96 387.124 292.82C381.159 285.397 375.64 277.626 370.594 269.55C368.974 266.9 367.854 264.9 367.154 263.6C366.814 262.95 366.564 262.48 366.424 262.18L366.274 261.88V261.83L363.274 263.26L366.334 261.86L363.334 263.29L366.394 261.89L366.254 261.58L366.094 261.29C345.194 223.82 321.774 200.54 298.804 186.77C279.713 175.106 257.786 168.907 235.414 168.85C209.494 168.85 192.094 177.11 191.414 177.44L191.124 177.58L190.854 177.73C190.244 178.1 176.534 185.94 162.704 202.97C154.724 212.808 148.315 223.821 143.704 235.62C137.895 250.68 134.967 266.698 135.074 282.84C135.074 307.51 141.394 336.55 157.744 370.09L157.894 370.39L158.054 370.68L160.944 368.98L158.044 370.66L160.934 368.96L158.034 370.64C158.174 370.89 183.894 415.47 190.774 523.38C192.604 552.7 202.524 575.38 216.444 592.21C230.364 609.04 247.984 620.01 265.054 627.21L268.374 619.3L271.704 611.39C256.464 604.99 241.334 595.44 229.704 581.31C218.074 567.18 209.614 548.42 207.924 522.31C200.794 410.24 173.564 363.15 172.864 361.98L165.464 366.33L173.184 362.57C157.774 330.94 152.244 304.57 152.244 282.84C152.135 268.827 154.662 254.919 159.694 241.84C165.265 227.639 173.829 214.805 184.804 204.21C188.116 200.984 191.655 198 195.394 195.28C196.724 194.28 197.774 193.62 198.464 193.18C198.804 192.96 199.054 192.81 199.214 192.72L199.364 192.62L197.114 188.73L199.344 192.64L197.094 188.75L199.324 192.66L195.074 185.2L198.764 192.95L197.564 190.43L198.744 192.96L197.544 190.44L198.724 192.97C198.964 192.84 213.914 185.97 235.424 186.03C250.994 186.03 269.934 189.49 289.984 201.51C310.034 213.53 331.364 234.29 351.114 269.67L358.604 265.49L350.814 269.08C351.374 270.31 374.434 319.58 462.314 389.49C475.604 400.08 485.384 412.26 491.884 425.41C498.322 438.437 501.649 452.779 501.604 467.31C501.604 494.13 490.664 522.72 468.124 548.76C445.584 574.8 411.474 598.15 365.604 614.06C351.521 618.962 336.716 621.473 321.804 621.49C304.585 621.504 287.537 618.073 271.664 611.4L268.194 619.26Z"
    fill="#49321D" />
  <path
    d="M391.567 514.921C419.677 486.811 419.677 441.236 391.567 413.126C363.457 385.016 317.882 385.016 289.772 413.126C261.662 441.236 261.662 486.811 289.772 514.921C317.882 543.031 363.457 543.031 391.567 514.921Z"
    fill="#F3E39D" />
  <path
    d="M412.644 464.02H404.064C404.064 478.688 398.979 492.902 389.674 504.241C380.369 515.579 367.42 523.341 353.034 526.202C338.648 529.064 323.714 526.849 310.778 519.935C297.842 513.021 287.704 501.835 282.09 488.284C276.477 474.733 275.736 459.654 279.994 445.618C284.251 431.581 293.244 419.455 305.44 411.306C317.636 403.157 332.28 399.489 346.877 400.926C361.475 402.364 375.122 408.818 385.494 419.19C391.393 425.068 396.07 432.056 399.258 439.75C402.445 447.443 404.078 455.692 404.064 464.02H421.224C421.213 445.388 414.742 427.337 402.915 412.942C391.088 398.546 374.635 388.696 356.361 385.069C338.086 381.443 319.119 384.264 302.691 393.053C286.263 401.842 273.39 416.055 266.266 433.27C259.141 450.485 258.205 469.638 263.617 487.466C269.03 505.294 280.456 520.693 295.948 531.042C311.441 541.391 330.043 546.048 348.584 544.221C367.125 542.393 384.46 534.194 397.634 521.02C405.129 513.542 411.071 504.657 415.119 494.875C419.168 485.093 421.243 474.607 421.224 464.02H412.644Z"
    fill="#E2C23B" />
  <path
    d="M361.464 561.1C343.192 566.013 323.912 565.734 305.79 560.295C287.668 554.856 271.421 544.472 258.874 530.31C258.127 529.465 257.222 528.775 256.209 528.28C255.196 527.785 254.095 527.494 252.969 527.425C251.844 527.355 250.716 527.508 249.649 527.874C248.583 528.24 247.599 528.813 246.754 529.56C245.909 530.306 245.219 531.212 244.724 532.225C244.229 533.238 243.939 534.339 243.869 535.464C243.799 536.59 243.952 537.718 244.318 538.784C244.685 539.851 245.258 540.835 246.004 541.68C260.667 558.236 279.657 570.376 300.839 576.735C322.021 583.095 344.556 583.422 365.914 577.68C367.002 577.386 368.022 576.881 368.914 576.194C369.807 575.506 370.556 574.65 371.118 573.673C371.68 572.696 372.043 571.618 372.189 570.5C372.334 569.383 372.258 568.248 371.964 567.16C371.671 566.072 371.166 565.052 370.478 564.159C369.791 563.266 368.934 562.518 367.957 561.956C366.98 561.394 365.902 561.03 364.785 560.885C363.667 560.74 362.532 560.816 361.444 561.11L361.464 561.1Z"
    fill="#49321D" />
  <path
    d="M373.504 369.11C384.373 373.584 394.384 379.907 403.094 387.8C404.78 389.327 407.005 390.122 409.278 390.01C411.551 389.897 413.686 388.886 415.214 387.2C416.741 385.513 417.536 383.288 417.424 381.015C417.311 378.742 416.3 376.607 414.614 375.08C404.429 365.85 392.719 358.46 380.004 353.24C377.899 352.374 375.537 352.379 373.436 353.255C371.336 354.131 369.67 355.805 368.804 357.91C367.938 360.014 367.943 362.376 368.819 364.477C369.695 366.577 371.369 368.244 373.474 369.11H373.504Z"
    fill="#49321D" />
  <path
    d="M215.901 63.1335C201.071 49.3805 188.236 35.5083 177.966 22.1328C175.976 19.5429 172.896 16.794 169.402 14.4909C165.909 12.1878 162.288 10.5192 159.336 9.85201C156.384 9.18486 154.344 9.57394 153.664 10.9336C152.983 12.2932 153.719 14.512 155.708 17.1019C167.717 32.7428 182.733 48.9659 200.087 65.0471C202.958 67.7098 206.547 70.1644 210.065 71.8707C213.583 73.5771 216.74 74.3955 218.844 74.1458C220.947 73.8962 221.823 72.599 221.28 70.5397C220.736 68.4803 218.818 65.8275 215.946 63.1648L215.901 63.1335Z"
    fill="#447C3B" />
  <path
    d="M286.256 65.0484C266.573 77.0245 247.121 86.5596 228.764 93.2303C225.21 94.5229 221.254 97.056 217.766 100.272C214.279 103.489 211.546 107.125 210.169 110.381C208.792 113.637 208.884 116.247 210.424 117.635C211.963 119.024 214.825 119.078 218.38 117.785C239.846 109.986 262.595 98.8273 285.612 84.8079C289.423 82.4889 293.114 79.2217 295.874 75.7251C298.633 72.2286 300.235 68.7891 300.327 66.1633C300.418 63.5376 298.992 61.9407 296.362 61.7238C293.732 61.5069 290.114 62.6878 286.303 65.0069L286.256 65.0484Z"
    fill="#447C3B" />
  <path
    d="M207.072 156.063C206.629 130.191 216.066 105.123 233.462 85.9661C234.991 84.2788 235.789 82.0529 235.677 79.778C235.566 77.5031 234.556 75.3655 232.868 73.8355C231.181 72.3056 228.955 71.5086 226.68 71.6198C224.405 71.731 222.268 72.7414 220.738 74.4287C216.905 78.6593 213.379 83.1577 210.187 87.8898C196.526 108.079 189.445 132 189.916 156.373C189.863 157.545 190.052 158.716 190.47 159.813C190.888 160.91 191.526 161.909 192.346 162.749C193.166 163.589 194.149 164.253 195.235 164.697C196.321 165.142 197.487 165.36 198.661 165.336C199.834 165.312 200.99 165.048 202.058 164.56C203.125 164.071 204.081 163.369 204.866 162.497C205.651 161.624 206.248 160.6 206.622 159.487C206.995 158.374 207.136 157.197 207.036 156.027L207.072 156.063Z"
    fill="#49321D" />
</svg>